<svg class="instagram-logo" xmlns="http://www.w3.org/2000/svg" viewBox="0 0 64 64" data-reactid="146">
    <style>
        .instagram-logo {
            fill: #007340;
        }
    </style>
    <path d="M58.022 21.275c-.178-2.671-.534-4.63-1.247-6.233-.712-1.78-1.602-3.205-3.027-4.63-1.425-1.425-2.85-2.315-4.63-3.027-1.603-.713-3.562-1.069-6.233-1.247-2.85-.178-3.74-.178-10.685-.178s-7.836 0-10.685.178c-2.671.178-4.63.534-6.233 1.247-1.78.712-3.205 1.602-4.63 3.027-1.425 1.425-2.315 2.85-3.027 4.63-.713 1.603-1.069 3.562-1.247 6.233C6.2 23.946 6.2 24.837 6.2 31.96s0 7.836.178 10.685c.178 2.671.534 4.63 1.247 6.233.712 1.78 1.602 3.205 3.027 4.63 1.425 1.425 2.85 2.315 4.63 3.027 1.603.713 3.562 1.069 6.233 1.247 2.671.178 3.562.178 10.685.178s7.836 0 10.685-.178c2.671-.178 4.63-.534 6.233-1.247 1.78-.712 3.205-1.602 4.63-3.027 1.425-1.425 2.315-2.85 3.027-4.63.713-1.603 1.069-3.562 1.247-6.233.178-2.671.178-3.562.178-10.685s0-7.836-.178-10.685zm-4.63 21.192c-.178 2.493-.534 3.918-.89 4.808-.535 1.247-1.07 2.137-1.96 3.027-.89.89-1.78 1.425-3.027 1.96-.89.356-2.315.712-4.808.89-2.671.178-3.562.178-10.507.178s-7.658 0-10.507-.178c-2.493-.178-3.918-.535-4.808-.89-1.247-.535-2.137-1.07-3.027-1.96-.89-.89-1.425-1.78-1.96-3.027-.356-.89-.712-2.315-.89-4.808-.178-2.671-.178-3.562-.178-10.507s0-7.658.178-10.507c.178-2.493.534-3.918.89-4.808.535-1.247 1.07-2.137 1.96-3.027.89-.89 1.78-1.425 3.027-1.96.89-.356 2.315-.712 4.808-.89 2.85-.178 3.562-.178 10.507-.178s7.658 0 10.507.178c2.493.178 3.918.534 4.808.89 1.247.535 2.137 1.07 3.027 1.96.89.89 1.425 1.78 1.96 3.027.356.89.712 2.315.89 4.808.178 2.671.178 3.562.178 10.507s0 7.658-.178 10.507z" data-reactid="147"></path>
    <path d="M32.2 18.604c-7.301 0-13.178 5.877-13.178 13.178S24.899 44.96 32.2 44.96c7.301 0 13.178-5.877 13.178-13.178S39.501 18.604 32.2 18.604zm0 21.726c-4.808 0-8.548-3.918-8.548-8.548s3.918-8.548 8.548-8.548 8.548 3.918 8.548 8.548-3.74 8.548-8.548 8.548z" data-reactid="148"></path>
    <path d="M46.09 15.042c-1.602 0-3.027 1.425-3.027 3.028s1.247 3.027 3.027 3.027c1.603 0 3.028-1.247 3.028-3.027s-1.425-3.206-3.028-3.028z" data-reactid="149"></path>
</svg>