<svg class="twitter-logo" xmlns="http://www.w3.org/2000/svg" viewBox="0 0 64 64" data-reactid="143">
    <style>
        .twitter-logo {
            fill: #007340;
        }
    </style>
    <path d="M58 15.877c-1.94.812-3.89 1.462-6.155 1.625 2.265-1.3 3.89-3.402 4.703-5.83-2.103 1.3-4.378 2.103-6.805 2.59-1.777-2.102-4.702-3.402-7.617-3.402-5.83 0-10.695 4.702-10.695 10.694 0 .813.163 1.625.325 2.428C22.85 23.494 15.07 19.279 9.727 12.8c-.975 1.625-1.462 3.402-1.462 5.342 0 3.727 1.94 6.967 4.702 8.907-1.777 0-3.402-.488-4.865-1.3v.162c0 5.18 3.728 9.395 8.582 10.37-.975.162-1.777.325-2.752.325-.65 0-1.3 0-1.94-.163 1.3 4.215 5.342 7.293 9.882 7.455-3.565 2.915-8.257 4.54-13.284 4.54-.813 0-1.777 0-2.59-.163a29.893 29.893 0 0 0 16.362 4.865c19.601 0 30.296-16.199 30.296-30.296v-1.3c2.102-1.787 3.89-3.565 5.342-5.667z" data-reactid="144"></path>
</svg>