<svg class="hot-fire-logo" xmlns="http://www.w3.org/2000/svg" viewBox="0 0 75.39 101">
    <style>
        .hot-fire-logo {
            fill: #fd0;
        }
    </style>
    <path d="M105.44,151.4s-7.77-16.79,4.76-43.11c0,0,15.54-23.56,1.25-34.33,0,0,19,5.51,8,33.33,0,0-9.77,25.82,7.27,26.82,0,0,16.29-2,0-27.07,0,0-3.51-17.79,8.52-26.07,0,0-11.53,19.3,3.26,22.56,0,0,7,1,9.27-12,0,0,.25-4.51-2.75-13,0,0-7-19,9-27.82,0,0-10,11.53-1,26.57,0,0,9.77,16.79.75,29.82,0,0-9.53,9.77,0,14s9.52-9,9.52-9-2.51-19.3,0-24.81c0,0,4-9.77,12.53-11a19.83,19.83,0,0,0-6.51,23.31s15.53,39.1,6,52.13Z" transform="translate(-103.06 -50.65)"/>
</svg>