<svg class="report-default" viewBox="0 0 512 512" xmlns="http://www.w3.org/2000/svg">
    <style>.report-default { fill: rgba(17, 17, 17, 0.6); }</style>
    <path d="m257.265625 137.800781-.382813.007813c-6.757812.175781-12.277343 5.851562-12.277343 12.652344v114.4375c0 3.382812 1.316406 6.5625 3.707031 8.949218 2.300781 2.300782 5.355469 3.617188 8.597656 3.703125l.355469.003907c6.976563 0 12.652344-5.675782 12.652344-12.65625v-114.4375c-.003907-6.980469-5.679688-12.660157-12.652344-12.660157zm0 0"/>
    <path d="m257.261719 351.261719c-5.722657 0-10.378907 4.65625-10.378907 10.378906 0 5.71875 4.65625 10.375 10.378907 10.375 5.722656 0 10.375-4.65625 10.375-10.375 0-5.722656-4.65625-10.378906-10.375-10.378906zm0 0"/>
    <path d="m437.542969 75.503906c-47.96875-48.242187-111.839844-75.054687-179.84375-75.4921872-.566407-.0117188-1.128907-.0117188-1.699219-.0117188-68.378906 0-132.664062 26.628906-181.015625 74.980469-48.355469 48.351562-74.984375 112.636719-74.984375 181.019531s26.628906 132.667969 74.984375 181.019531c48.351563 48.351563 112.636719 74.980469 181.015625 74.980469.5625 0 1.117188 0 1.683594-.011719 68.011718-.433593 131.882812-27.242187 179.859375-75.492187 48.015625-48.292969 74.457031-112.390625 74.457031-180.496094 0-68.101562-26.441406-132.203125-74.457031-180.496094zm-180.28125 326.511719c-22.265625 0-40.378907-18.113281-40.378907-40.375 0-22.265625 18.113282-40.378906 40.378907-40.378906 22.261719 0 40.375 18.113281 40.375 40.378906 0 22.261719-18.113281 40.375-40.375 40.375zm42.652343-137.117187c0 23.519531-19.132812 42.65625-42.648437 42.65625-.363281 0-.722656-.003907-1.085937-.015626-11.015626-.285156-21.320313-4.71875-29.082032-12.476562-8.054687-8.058594-12.492187-18.769531-12.492187-30.164062v-114.4375c0-23.304688 18.238281-42.035157 41.523437-42.644532.417969-.007812.773438-.015625 1.136719-.015625 23.519531 0 42.652344 19.136719 42.652344 42.660157v114.4375zm0 0"/>
</svg>